# xmcd
# 
# Track frame offsets:
#     150
#     19954
#     38405
#     52620
#     70923
#     87416
#     105746
#     123585
#     138756
#     154396
#     173203
#     189329
#     210904
#     225951
#     241896
#     257449
#     274634
#     291367
#     306198
# 
# Disc length: 4302
# 
# Revision: 3
# Processed by: cddbd v1.5.2PL0 Copyright (c) Steve Scherf et al.
# Submitted via: fre:ac v1.0.31
# 
DISCID=f710cc13
DTITLE=Various Artist - Die Ultimative Chart Show - Die erfolgreichsten Fetenhits  - CD1
DYEAR=2012
DGENRE=Pop
TTITLE0=LMFAO feat. Lauren Bennett and GoonRock - Party Rock Anthem
TTITLE1=Black Eyed Peas - I gotta feeling
TTITLE2=David Guetta feat. Kelly Rowland - When love takes over
TTITLE3=Gossip - Heavy cross
TTITLE4=Jennifer Lopez - On the floor
TTITLE5=Taio Cruz - Hangover
TTITLE6=Lady Gaga - Poker face
TTITLE7=Maroon 5 feat. Christina Aguilera - Moves like Jagger
TTITLE8=Seeed - Ding
TTITLE9=Peter Fox - Alles neu
TTITLE10=Culcha Candela - Hamma!
TTITLE11=Pussycat Dolls feat. Busta Rhymes - Don't cha
TTITLE12=Ke$ha - Tik tok
TTITLE13=Sean Paul - Get busy
TTITLE14=Stromae - Alors on danse
TTITLE15=Mousse T. vs. Hot 'n' Juicy - Horny '98
TTITLE16=Deichkind - Remmidemmi (Yippie Yippie Yeah)
TTITLE17=Safri Duo - Played-a-live (The bongo song)
TTITLE18=Psy - Gangnam style
EXTD=
EXTT0=
EXTT1=
EXTT2=
EXTT3=
EXTT4=
EXTT5=
EXTT6=
EXTT7=
EXTT8=
EXTT9=
EXTT10=
EXTT11=
EXTT12=
EXTT13=
EXTT14=
EXTT15=
EXTT16=
EXTT17=
EXTT18=
PLAYORDER=
